<?xml version="1.0" encoding="UTF-8" standalone="no"?>
<!-- Generator: Adobe Illustrator 25.4.1, SVG Export Plug-In . SVG Version: 6.00 Build 0)  -->

<svg
   xmlns:dc="http://purl.org/dc/elements/1.1/"
   xmlns:cc="http://creativecommons.org/ns#"
   xmlns:rdf="http://www.w3.org/1999/02/22-rdf-syntax-ns#"
   xmlns:svg="http://www.w3.org/2000/svg"
   xmlns="http://www.w3.org/2000/svg"
   xmlns:sodipodi="http://sodipodi.sourceforge.net/DTD/sodipodi-0.dtd"
   xmlns:inkscape="http://www.inkscape.org/namespaces/inkscape"
   version="1.1"
   x="0px"
   y="0px"
   viewBox="0 0 1381.35 2329"
   xml:space="preserve"
   id="svg275"
   sodipodi:docname="background-saiba-mais.svg"
   width="1381.35"
   height="2329"
   inkscape:version="0.92.5 (2060ec1f9f, 2020-04-08)"><metadata
   id="metadata281"><rdf:RDF><cc:Work
       rdf:about=""><dc:format>image/svg+xml</dc:format><dc:type
         rdf:resource="http://purl.org/dc/dcmitype/StillImage" /><dc:title></dc:title></cc:Work></rdf:RDF></metadata><defs
   id="defs279">
	<linearGradient
   y2="-9.094947e-13"
   x2="1862"
   y1="3533"
   x1="1862"
   gradientUnits="userSpaceOnUse"
   id="SVGID_1_"
   gradientTransform="translate(6.3791,6.4178929)">
		<stop
   id="stop4"
   style="stop-color:#FFFFFF"
   offset="0" />
		<stop
   id="stop6"
   style="stop-color:#FFFCFB"
   offset="0.2693" />
		<stop
   id="stop8"
   style="stop-color:#FEF4F0"
   offset="0.5233" />
		<stop
   id="stop10"
   style="stop-color:#FDE6DD"
   offset="0.7704" />
		<stop
   id="stop12"
   style="stop-color:#FBD3C4"
   offset="1" />
	</linearGradient>
	
	
		<linearGradient
   y2="1997"
   x2="-874"
   y1="3872"
   x1="-874"
   gradientUnits="userSpaceOnUse"
   id="SVGID_00000003093717933584602480000005976589484736985531_"
   gradientTransform="translate(6.3791,6.4178929)">
		<stop
   id="stop17"
   style="stop-color:#FFFFFF"
   offset="0" />
		<stop
   id="stop19"
   style="stop-color:#FFFCFB"
   offset="0.2693" />
		<stop
   id="stop21"
   style="stop-color:#FEF4F0"
   offset="0.5233" />
		<stop
   id="stop23"
   style="stop-color:#FDE6DD"
   offset="0.7704" />
		<stop
   id="stop25"
   style="stop-color:#FBD3C4"
   offset="1" />
	</linearGradient>
	
		
	
		<linearGradient
   y2="0"
   x2="372"
   y1="1875"
   x1="372"
   gradientUnits="userSpaceOnUse"
   id="SVGID_00000046340731657685685070000005394453113171445895_"
   gradientTransform="translate(6.3791,6.4178929)">
		<stop
   id="stop30"
   style="stop-color:#FFFFFF"
   offset="0" />
		<stop
   id="stop32"
   style="stop-color:#FFFCFB"
   offset="0.2693" />
		<stop
   id="stop34"
   style="stop-color:#FEF4F0"
   offset="0.5233" />
		<stop
   id="stop36"
   style="stop-color:#FDE6DD"
   offset="0.7704" />
		<stop
   id="stop38"
   style="stop-color:#FBD3C4"
   offset="1" />
	</linearGradient>
	
		
	
		<linearGradient
   y2="1305.25"
   x2="3032"
   y1="1305.25"
   x1="1666"
   gradientUnits="userSpaceOnUse"
   id="SVGID_00000136387009818597723700000010809399538191500459_">
		<stop
   id="stop43"
   style="stop-color:#FBD3C4"
   offset="0" />
		<stop
   id="stop45"
   style="stop-color:#FFFFFF"
   offset="1" />
	</linearGradient>
	
		
	
	
	
	
	
	
	
	
	
	
	
	
	
	
	
	
	
	
		<linearGradient
   y2="979"
   x2="3981.6489"
   y1="1705"
   x1="3981.6489"
   gradientUnits="userSpaceOnUse"
   id="SVGID_00000129170943782888107910000013262630559036070317_"
   gradientTransform="translate(-3286)">
		<stop
   id="stop131"
   style="stop-color:#FBD3C4"
   offset="0" />
		<stop
   id="stop133"
   style="stop-color:#FFFFFF"
   offset="1" />
	</linearGradient>
	
		
	
	
	
	

	
	
	
	
	
	
	
	
	
	
	
	
	
</defs><sodipodi:namedview
   pagecolor="#ffffff"
   bordercolor="#666666"
   borderopacity="1"
   objecttolerance="10"
   gridtolerance="10"
   guidetolerance="10"
   inkscape:pageopacity="0"
   inkscape:pageshadow="2"
   inkscape:window-width="1920"
   inkscape:window-height="1007"
   id="namedview277"
   showgrid="false"
   fit-margin-top="0"
   fit-margin-left="0"
   fit-margin-right="0"
   fit-margin-bottom="0"
   inkscape:zoom="0.15581438"
   inkscape:cx="-95.244065"
   inkscape:cy="1004.5119"
   inkscape:window-x="1920"
   inkscape:window-y="0"
   inkscape:window-maximized="1"
   inkscape:current-layer="svg275" />
<style
   type="text/css"
   id="style2">
	.st0{display:none;fill:url(#SVGID_1_);}
	.st1{display:none;fill:url(#SVGID_00000179620154690871316030000006282412722697062845_);}
	.st2{display:none;fill:url(#SVGID_00000096048890084829030060000012072733633228337300_);}
	.st3{fill:url(#SVGID_00000150087560597454186300000017453849133928921256_);}
	.st4{fill:#E6E6E6;}
	.st5{fill:none;stroke:#FFFFFF;stroke-width:0.8538;stroke-miterlimit:10;}
	.st6{fill:#05184A;}
	.st7{fill:url(#SVGID_00000042716573071934403080000006311087521579818654_);}
	.st8{fill:url(#SVGID_00000012474050201167903580000005886031572379447694_);}
	.st9{fill:url(#SVGID_00000025433809822259690870000017364996087978322309_);}
	.st10{fill:none;stroke:#9FC9DD;stroke-miterlimit:10;}
	.st11{fill:url(#SVGID_00000090294768961357401530000012634956981086145460_);}
	.st12{fill:none;stroke:#EE7555;stroke-width:2;stroke-miterlimit:10;}
	.st13{opacity:0.3;}
	.st14{fill:#1D5AA0;}
	.st15{fill:#1C3666;}
	.st16{fill:#9FC9DD;}
	.st17{fill:none;stroke:#05184A;stroke-width:2;stroke-miterlimit:10;}
	.st18{display:none;}
</style>
<rect
   y="6.4178929"
   style="display:none;fill:url(#SVGID_1_)"
   id="rect15"
   height="3533"
   width="1402"
   class="st0"
   x="1167.3792" /><rect
   id="rect28"
   height="1875"
   width="1402"
   style="display:none;fill:url(#SVGID_00000003093717933584602480000005976589484736985531_)"
   y="2003.4178"
   x="-1568.6208" /><rect
   y="6.4178929"
   id="rect41"
   height="1875"
   width="1402"
   style="display:none;fill:url(#SVGID_00000046340731657685685070000005394453113171445895_)"
   x="-322.62091" /><g
   id="g129"
   transform="translate(6.3791,6.4178929)">
		<path
   style="fill:none;stroke:#9fc9dd;stroke-miterlimit:10"
   inkscape:connector-curvature="0"
   id="path121"
   d="m -5733.05,2262.05 c -11.26,0 -20.4,-9.13 -20.4,-20.4 0,-11.27 9.13,-20.4 20.4,-20.4 z"
   class="st10" />
		<path
   style="fill:none;stroke:#9fc9dd;stroke-miterlimit:10"
   inkscape:connector-curvature="0"
   id="path123"
   d="m -5692.01,2303 c -11.26,0 -20.4,-9.13 -20.4,-20.4 0,-11.27 9.13,-20.4 20.4,-20.4 z"
   class="st10" />
		<path
   style="fill:none;stroke:#9fc9dd;stroke-miterlimit:10"
   inkscape:connector-curvature="0"
   id="path125"
   d="m -5753.6,2262.05 c -11.26,0 -20.4,-9.13 -20.4,-20.4 0,-11.27 9.13,-20.4 20.4,-20.4 z"
   class="st10" />
		<path
   style="fill:none;stroke:#9fc9dd;stroke-miterlimit:10"
   inkscape:connector-curvature="0"
   id="path127"
   d="m -5732.97,2262.21 c 11.26,0 20.4,9.13 20.4,20.4 0,11.27 -9.13,20.4 -20.4,20.4 z"
   class="st10" />
	</g><g
   id="g142"
   transform="translate(6.3791,6.4178929)">
		<path
   style="fill:none;stroke:#ee7555;stroke-width:2;stroke-miterlimit:10"
   inkscape:connector-curvature="0"
   id="path138"
   d="m 3398.5,4334.31 c 0,-10.91 8.84,-19.75 19.75,-19.75 10.91,0 19.75,8.84 19.75,19.75"
   class="st12" />
		<path
   style="fill:none;stroke:#ee7555;stroke-width:2;stroke-miterlimit:10"
   inkscape:connector-curvature="0"
   id="path140"
   d="m 3477.5,4333.19 c 0,10.91 -8.84,19.75 -19.75,19.75 -10.91,0 -19.75,-8.84 -19.75,-19.75"
   class="st12" />
	</g>
<g
   id="g933"><g
     transform="translate(-3286)"
     id="g100">
		<rect
   x="3300"
   y="33.400002"
   class="st4"
   width="1366"
   height="273.20001"
   id="rect98"
   style="fill:#e6e6e6" />
	</g><line
     class="st5"
     x1="14.000039"
     y1="33.400002"
     x2="1380.0001"
     y2="306.60001"
     id="line102"
     style="fill:none;stroke:#ffffff;stroke-width:0.8538;stroke-miterlimit:10" /><line
     class="st5"
     x1="14.000039"
     y1="306.60001"
     x2="1380.0001"
     y2="33.400002"
     id="line104"
     style="fill:none;stroke:#ffffff;stroke-width:0.8538;stroke-miterlimit:10" /><g
     transform="translate(-3286)"
     id="g115">
		<g
   id="g113">
			
				<linearGradient
   id="SVGID_00000001639936819485194490000001641775413145131944_"
   gradientUnits="userSpaceOnUse"
   x1="-2499.5"
   y1="-1587.7584"
   x2="-1133.5"
   y2="-1587.7584"
   gradientTransform="translate(5799,1757.5935)">
				<stop
   offset="2.663895e-07"
   style="stop-color:#9DA6AA"
   id="stop106" />
				<stop
   offset="1"
   style="stop-color:#05184A"
   id="stop108" />
			</linearGradient>
			
				<rect
   x="3299.5"
   y="33.240002"
   style="fill:url(#SVGID_00000001639936819485194490000001641775413145131944_)"
   width="1366"
   height="273.20001"
   id="rect111" />
		</g>
	</g><g
     transform="translate(-3286)"
     id="g119">
		<rect
   x="3286"
   y="0"
   class="st6"
   width="1381.35"
   height="308.22"
   id="rect117"
   style="fill:#05184a" />
	</g><rect
     x="14.000039"
     y="979"
     style="fill:url(#SVGID_00000129170943782888107910000013262630559036070317_)"
     width="1363.3"
     height="726"
     id="rect136" /><rect
     x="13.590127"
     y="1607"
     class="st6"
     width="1366"
     height="722"
     id="rect152"
     style="fill:#05184a" /><g
     transform="translate(-3286)"
     class="st13"
     id="g183"
     style="opacity:0.3">
		<path
   class="st14"
   d="m 4257.31,171.5 c 37.69,0 68.25,30.56 68.25,68.25 0,37.69 -30.56,68.25 -68.25,68.25 z"
   id="path175"
   inkscape:connector-curvature="0"
   style="fill:#1d5aa0" />
		<path
   class="st15"
   d="m 4120,35 c 37.69,0 68.25,30.56 68.25,68.25 0,37.69 -30.56,68.25 -68.25,68.25 z"
   id="path177"
   inkscape:connector-curvature="0"
   style="fill:#1c3666" />
		<path
   class="st16"
   d="m 4326.1,171.5 c 37.69,0 68.25,30.56 68.25,68.25 0,37.69 -30.56,68.25 -68.25,68.25 z"
   id="path179"
   inkscape:connector-curvature="0"
   style="fill:#9fc9dd" />
		<path
   class="st14"
   d="m 4257.04,171.5 c -37.69,0 -68.25,-30.56 -68.25,-68.25 0,-37.69 30.56,-68.25 68.25,-68.25 z"
   id="path181"
   inkscape:connector-curvature="0"
   style="fill:#1d5aa0" />
	</g><g
     transform="translate(-3286)"
     class="st13"
     id="g193"
     style="opacity:0.3">
		<path
   class="st14"
   d="m 4529.66,171.5 c 37.69,0 68.25,-30.56 68.25,-68.25 0,-37.69 -30.56,-68.25 -68.25,-68.25 z"
   id="path185"
   inkscape:connector-curvature="0"
   style="fill:#1d5aa0" />
		<path
   class="st15"
   d="m 4392.35,308 c 37.69,0 68.25,-30.56 68.25,-68.25 0,-37.69 -30.56,-68.25 -68.25,-68.25 z"
   id="path187"
   inkscape:connector-curvature="0"
   style="fill:#1c3666" />
		<path
   class="st16"
   d="m 4598.45,171.5 c 37.69,0 68.25,-30.56 68.25,-68.25 0,-37.69 -30.56,-68.25 -68.25,-68.25 z"
   id="path189"
   inkscape:connector-curvature="0"
   style="fill:#9fc9dd" />
		<path
   class="st14"
   d="m 4529.39,171.5 c -37.69,0 -68.25,30.56 -68.25,68.25 0,37.69 30.56,68.25 68.25,68.25 z"
   id="path191"
   inkscape:connector-curvature="0"
   style="fill:#1d5aa0" />
	</g><g
     transform="translate(-3286)"
     id="g231">
		<path
   class="st12"
   d="m 3428.09,1608.31 c 0,-10.91 8.84,-19.75 19.75,-19.75 10.91,0 19.75,8.84 19.75,19.75"
   id="path227"
   inkscape:connector-curvature="0"
   style="fill:none;stroke:#ee7555;stroke-width:2;stroke-miterlimit:10" />
		<path
   class="st12"
   d="m 3507.09,1607.19 c 0,10.91 -8.84,19.75 -19.75,19.75 -10.91,0 -19.75,-8.84 -19.75,-19.75"
   id="path229"
   inkscape:connector-curvature="0"
   style="fill:none;stroke:#ee7555;stroke-width:2;stroke-miterlimit:10" />
	</g><g
     transform="translate(-3286)"
     class="st13"
     id="g241"
     style="opacity:0.3">
		<path
   class="st14"
   d="m 4542.06,2201.05 c 33.98,0 61.52,27.54 61.52,61.52 0,33.98 -27.54,61.52 -61.52,61.52 z"
   id="path233"
   inkscape:connector-curvature="0"
   style="fill:#1d5aa0" />
		<path
   class="st15"
   d="m 4418.28,2078 c 33.98,0 61.52,27.54 61.52,61.52 0,33.98 -27.54,61.52 -61.52,61.52 z"
   id="path235"
   inkscape:connector-curvature="0"
   style="fill:#1c3666" />
		<path
   class="st16"
   d="m 4604.07,2201.05 c 33.98,0 61.52,27.54 61.52,61.52 0,33.98 -27.54,61.52 -61.52,61.52 z"
   id="path237"
   inkscape:connector-curvature="0"
   style="fill:#9fc9dd" />
		<path
   class="st14"
   d="m 4541.82,2201.05 c -33.98,0 -61.52,-27.54 -61.52,-61.52 0,-33.98 27.54,-61.52 61.52,-61.52 z"
   id="path239"
   inkscape:connector-curvature="0"
   style="fill:#1d5aa0" />
	</g></g>
<g
   id="Grid"
   class="st18"
   transform="translate(6.3791,6.4178929)">
</g>
</svg>