<?xml version="1.0" encoding="UTF-8" standalone="no"?>
<!-- Created with Inkscape (http://www.inkscape.org/) -->

<svg
   xmlns:dc="http://purl.org/dc/elements/1.1/"
   xmlns:cc="http://creativecommons.org/ns#"
   xmlns:rdf="http://www.w3.org/1999/02/22-rdf-syntax-ns#"
   xmlns:svg="http://www.w3.org/2000/svg"
   xmlns="http://www.w3.org/2000/svg"
   xmlns:sodipodi="http://sodipodi.sourceforge.net/DTD/sodipodi-0.dtd"
   xmlns:inkscape="http://www.inkscape.org/namespaces/inkscape"
   width="210mm"
   height="297mm"
   viewBox="0 0 210 297"
   version="1.1"
   id="svg531"
   inkscape:version="0.92.5 (2060ec1f9f, 2020-04-08)"
   sodipodi:docname="background-home.svg">
  <defs
     id="defs525">
    <linearGradient
       gradientTransform="translate(5799,1757.5935)"
       y2="-1587.7584"
       x2="-4433.5"
       y1="-1587.7584"
       x1="-5799.5"
       gradientUnits="userSpaceOnUse"
       id="SVGID_00000098205653933405946880000007977404843980321698_">
      <stop
         id="stop60"
         style="stop-color:#9DA6AA"
         offset="2.663895e-07" />
      <stop
         id="stop62"
         style="stop-color:#05184A"
         offset="1" />
    </linearGradient>
  </defs>
  <sodipodi:namedview
     id="base"
     pagecolor="#ffffff"
     bordercolor="#666666"
     borderopacity="1.0"
     inkscape:pageopacity="0.0"
     inkscape:pageshadow="2"
     inkscape:zoom="1"
     inkscape:cx="111.88307"
     inkscape:cy="521.3992"
     inkscape:document-units="mm"
     inkscape:current-layer="layer1"
     showgrid="false"
     inkscape:window-width="1920"
     inkscape:window-height="1007"
     inkscape:window-x="1920"
     inkscape:window-y="0"
     inkscape:window-maximized="1"
     fit-margin-top="0"
     fit-margin-left="0"
     fit-margin-right="0"
     fit-margin-bottom="0" />
  <metadata
     id="metadata528">
    <rdf:RDF>
      <cc:Work
         rdf:about="">
        <dc:format>image/svg+xml</dc:format>
        <dc:type
           rdf:resource="http://purl.org/dc/dcmitype/StillImage" />
        <dc:title></dc:title>
      </cc:Work>
    </rdf:RDF>
  </metadata>
  <g
     inkscape:label="Camada 1"
     inkscape:groupmode="layer"
     id="layer1"
     transform="translate(-172.78257,19.222753)">
    <g
       id="g72"
       transform="matrix(0.99746304,0,0,1,174.25721,-19.14303)">
      <g
         id="g52"
         transform="matrix(0.15253262,0,0,0.15147172,2.1458544,-0.29717552)">
        <rect
           y="33.400002"
           class="st4"
           width="1366"
           height="273.20001"
           id="rect50"
           x="0"
           style="fill:#e6e6e6" />
      </g>
      <line
         class="st5"
         x1="2.1458507"
         y1="4.7619791"
         x2="210.50542"
         y2="46.144054"
         id="line54"
         style="fill:none;stroke:#ffffff;stroke-width:0.12977865;stroke-miterlimit:10" />
      <line
         class="st5"
         x1="2.1458507"
         y1="46.144054"
         x2="210.50542"
         y2="4.7619791"
         id="line56"
         style="fill:none;stroke:#ffffff;stroke-width:0.12977865;stroke-miterlimit:10" />
      <rect
         y="187.67923"
         class="st6"
         width="210.43843"
         height="90.463768"
         id="rect58"
         x="0.066981606"
         style="fill:#05184a;stroke-width:0.13893315" />
      <g
         id="g69"
         transform="matrix(0.15253262,0,0,0.15147172,2.1458544,-0.29717552)">
        <g
           id="g67">
          <linearGradient
             id="linearGradient500"
             gradientUnits="userSpaceOnUse"
             x1="-5799.5"
             y1="-1587.7584"
             x2="-4433.5"
             y2="-1587.7584"
             gradientTransform="translate(5799,1757.5935)">
            <stop
               offset="2.663895e-07"
               style="stop-color:#9DA6AA"
               id="stop496" />
            <stop
               offset="1"
               style="stop-color:#05184A"
               id="stop498" />
          </linearGradient>
          <rect
             x="-0.5"
             y="33.240002"
             style="fill:url(#SVGID_00000098205653933405946880000007977404843980321698_)"
             width="1366"
             height="273.20001"
             id="rect65" />
        </g>
      </g>
      <g
         id="g73"
         transform="matrix(0.15253262,0,0,0.15147172,2.1458544,-0.29717552)">
        <rect
           x="-14"
           y="0"
           class="st6"
           width="1381.35"
           height="308.22"
           id="rect71"
           style="fill:#05184a" />
      </g>
      <g
         id="g148"
         transform="matrix(0.15253262,0,0,0.15147172,2.1458544,-0.29717552)">
        <path
           class="st12"
           d="m 128.5,1242.31 c 0,-10.91 8.84,-19.75 19.75,-19.75 10.91,0 19.75,8.84 19.75,19.75"
           id="path144"
           inkscape:connector-curvature="0"
           style="fill:none;stroke:#ee7555;stroke-width:2;stroke-miterlimit:10" />
        <path
           class="st12"
           d="m 207.5,1241.19 c 0,10.91 -8.84,19.75 -19.75,19.75 -10.91,0 -19.75,-8.84 -19.75,-19.75"
           id="path146"
           inkscape:connector-curvature="0"
           style="fill:none;stroke:#ee7555;stroke-width:2;stroke-miterlimit:10" />
      </g>
      <g
         class="st13"
         id="g209"
         style="opacity:0.3"
         transform="matrix(0.15253262,0,0,0.15147172,2.1458544,-18.818015)">
        <path
           class="st14"
           d="m 1242.47,1835.05 c 33.98,0 61.52,27.54 61.52,61.52 0,33.98 -27.54,61.52 -61.52,61.52 z"
           id="path201"
           inkscape:connector-curvature="0"
           style="fill:#1d5aa0" />
        <path
           class="st15"
           d="m 1118.69,1712 c 33.98,0 61.52,27.54 61.52,61.52 0,33.98 -27.54,61.52 -61.52,61.52 z"
           id="path203"
           inkscape:connector-curvature="0"
           style="fill:#1c3666" />
        <path
           class="st16"
           d="m 1304.48,1835.05 c 33.98,0 61.52,27.54 61.52,61.52 0,33.98 -27.54,61.52 -61.52,61.52 z"
           id="path205"
           inkscape:connector-curvature="0"
           style="fill:#9fc9dd" />
        <path
           class="st14"
           d="m 1242.22,1835.05 c -33.98,0 -61.52,-27.54 -61.52,-61.52 0,-33.98 27.54,-61.52 61.52,-61.52 z"
           id="path207"
           inkscape:connector-curvature="0"
           style="fill:#1d5aa0" />
      </g>
      <g
         class="st13"
         id="g261"
         style="opacity:0.3"
         transform="matrix(0.15253262,0,0,0.15147172,2.1458544,-0.29717552)">
        <path
           class="st14"
           d="m 1229.66,171.5 c 37.69,0 68.25,-30.56 68.25,-68.25 0,-37.69 -30.56,-68.25 -68.25,-68.25 z"
           id="path253"
           inkscape:connector-curvature="0"
           style="fill:#1d5aa0" />
        <path
           class="st15"
           d="m 1092.35,308 c 37.69,0 68.25,-30.56 68.25,-68.25 0,-37.69 -30.56,-68.25 -68.25,-68.25 z"
           id="path255"
           inkscape:connector-curvature="0"
           style="fill:#1c3666" />
        <path
           class="st16"
           d="m 1298.45,171.5 c 37.69,0 68.25,-30.56 68.25,-68.25 0,-37.69 -30.56,-68.25 -68.25,-68.25 z"
           id="path257"
           inkscape:connector-curvature="0"
           style="fill:#9fc9dd" />
        <path
           class="st14"
           d="m 1229.39,171.5 c -37.69,0 -68.25,30.56 -68.25,68.25 0,37.69 30.56,68.25 68.25,68.25 z"
           id="path259"
           inkscape:connector-curvature="0"
           style="fill:#1d5aa0" />
      </g>
      <g
         class="st13"
         id="g271"
         style="opacity:0.3"
         transform="matrix(0.15253262,0,0,0.15147172,2.1458544,-0.29717552)">
        <path
           class="st14"
           d="m 957.31,171.5 c 37.69,0 68.25,30.56 68.25,68.25 0,37.69 -30.56,68.25 -68.25,68.25 z"
           id="path263"
           inkscape:connector-curvature="0"
           style="fill:#1d5aa0" />
        <path
           class="st15"
           d="m 820,35 c 37.69,0 68.25,30.56 68.25,68.25 0,37.69 -30.56,68.25 -68.25,68.25 z"
           id="path265"
           inkscape:connector-curvature="0"
           style="fill:#1c3666" />
        <path
           class="st16"
           d="m 1026.1,171.5 c 37.69,0 68.25,30.56 68.25,68.25 0,37.69 -30.56,68.25 -68.25,68.25 z"
           id="path267"
           inkscape:connector-curvature="0"
           style="fill:#9fc9dd" />
        <path
           class="st14"
           d="m 957.04,171.5 c -37.69,0 -68.25,-30.56 -68.25,-68.25 0,-37.69 30.56,-68.25 68.25,-68.25 z"
           id="path269"
           inkscape:connector-curvature="0"
           style="fill:#1d5aa0" />
      </g>
    </g>
  </g>
</svg>
