<svg id="Camada_1" data-name="Camada 1" xmlns="http://www.w3.org/2000/svg" viewBox="0 0 300 300"><defs><style>.cls-1{fill:#05184a;}.cls-2{fill:#fff;}</style></defs><circle class="cls-1" cx="150" cy="150" r="101.24"/><path class="cls-2" d="M149.38,81.28a69.21,69.21,0,0,0,0,138.42,1.73,1.73,0,1,0,0-3.46,65.79,65.79,0,1,1,42.32-15.45V192a1.73,1.73,0,1,0-3.46,0v12.5a1.74,1.74,0,0,0,1.73,1.73h12.85a1.74,1.74,0,0,0,0-3.47h-8.1A69.2,69.2,0,0,0,149.38,81.28Z"/><path class="cls-2" d="M142.16,197.93a12.43,12.43,0,0,0,8.86,3.93h0c8.18,0,14.85-9,14.87-20a28.73,28.73,0,0,0-.33-4.24,25,25,0,0,0,5.11,3.68A21.64,21.64,0,0,0,187,183.07a16.42,16.42,0,0,0,9.85-8c4.55-8.66.2-20-9.69-25.18-6.47-3.42-15-3.75-22.13-3.15a8.91,8.91,0,0,0-.31-4.27,9.49,9.49,0,0,0,1,.3,7.78,7.78,0,0,0,1.43.14,7.49,7.49,0,0,0,5.36-2.38,10.13,10.13,0,0,0,2.55-9.91c9.95-8.54,16.82-8.31,19.95-5.18a5.77,5.77,0,0,1-4.09,9.83h0a5.72,5.72,0,0,1-4.06-1.68,1.73,1.73,0,0,0-2.45,0,1.74,1.74,0,0,0,0,2.45,9.18,9.18,0,0,0,6.51,2.69h0A9.23,9.23,0,0,0,197.48,123c-1.43-1.44-9.23-7.82-23.94,4.41a11.15,11.15,0,0,0-1-1.21q-.39-.37-.81-.72c12.15-14.68,5.79-22.44,4.35-23.88a9.15,9.15,0,0,0-6.51-2.7h0a9.23,9.23,0,0,0-6.52,15.74,1.73,1.73,0,0,0,2.45,0,1.74,1.74,0,0,0,0-2.45,5.77,5.77,0,0,1,4.08-9.83h0a5.67,5.67,0,0,1,4.06,1.69c3.1,3.1,3.35,9.89-5,19.73a10.06,10.06,0,0,0-3.24-.54h0a10.09,10.09,0,0,0-7.16,3,7.31,7.31,0,0,0-1.88,8,8.94,8.94,0,0,0-4-.25c.6-7.17.27-15.67-3.15-22.15-5.23-9.9-16.52-14.25-25.17-9.7a16.48,16.48,0,0,0-8,9.85,21.66,21.66,0,0,0,1.77,16.36,25.26,25.26,0,0,0,3.67,5.11,28.08,28.08,0,0,0-4.21-.32h0c-11,0-20,6.68-20,14.87a12.47,12.47,0,0,0,3.93,8.88c3.73,3.73,9.71,5.95,16,5.95h0a30.37,30.37,0,0,0,7.56-1.07c-8.65,9.95-15,21.22-11.89,24.35l.42.42a3.52,3.52,0,0,0,2.6.95c1.95,0,4.63-1,8-2.93a80.31,80.31,0,0,0,13.39-10.17,30.2,30.2,0,0,0-1.06,7.48C136.19,188.19,138.42,194.19,142.16,197.93Zm43.41-45c8.21,4.34,11.91,13.54,8.25,20.51a13.06,13.06,0,0,1-7.81,6.3,18.18,18.18,0,0,1-13.71-1.53,28.26,28.26,0,0,1-8.63-7.81,1.73,1.73,0,0,0-3,1.61,31.7,31.7,0,0,1,1.77,9.82c0,9.11-5.13,16.53-11.42,16.54h0a9.07,9.07,0,0,1-6.41-2.91c-3.11-3.11-5-8.19-5-13.61,0-11.77,10.55-26.77,12.5-29.45C155.58,151.55,174.44,147.08,185.57,153Zm-24.9-24.3a6.66,6.66,0,0,1,4.72-2h0a6.61,6.61,0,0,1,4.71,2,6.7,6.7,0,0,1,0,9.44,3.93,3.93,0,0,1-3.69,1.29,9,9,0,0,1-4.34-2.68C158.94,133.57,158.47,130.87,160.67,128.66Zm-43.49,30.73h0c-5.4,0-10.47-1.84-13.57-4.94a9.09,9.09,0,0,1-2.91-6.42c0-6.29,7.42-11.41,16.53-11.42h0a31.53,31.53,0,0,1,9.8,1.77,1.73,1.73,0,0,0,1.61-3,28.23,28.23,0,0,1-7.81-8.62A18.21,18.21,0,0,1,119.29,113a13.08,13.08,0,0,1,6.3-7.82c7-3.66,16.16,0,20.5,8.26,5.87,11.11,1.41,30,.53,33.42C143.94,148.85,129,159.38,117.18,159.39ZM115.63,184l-.19-.19c-.34-2.21,4.58-12.74,16.21-24.42a89.77,89.77,0,0,0,17.48-10.07l.18-.16.05-.05a1.74,1.74,0,0,0,.44-.75,78.88,78.88,0,0,0,2.11-10.7c3.86-1.45,7,2.07,7.12,2.22l.19.19s3.64,3.18,2.15,7a80.7,80.7,0,0,0-10.7,2.11,2.08,2.08,0,0,0-.81.5l-.15.17a90.14,90.14,0,0,0-10,17.4C125.78,181.2,117.18,184.43,115.63,184Z"/></svg>