<svg id="Camada_1" data-name="Camada 1" xmlns="http://www.w3.org/2000/svg" viewBox="0 0 300 300"><defs><style>.cls-1{fill:#05184a;}.cls-2{fill:#fff;}</style></defs><circle class="cls-1" cx="150" cy="150" r="101.24"/><path class="cls-2" d="M207.61,199.55a2.42,2.42,0,0,0-2.42-2.42H194.07v-47.3c2.66-.52,5.35-1.08,8.07-1.7a2.42,2.42,0,0,0,1.18-4.06L150.47,90.38l5.6-5.64a2.43,2.43,0,0,0-3.44-3.42l-5.57,5.61-5.57-5.61a2.43,2.43,0,0,0-3.44,3.42l5.6,5.64L90.8,144.07a2.4,2.4,0,0,0-.6,2.38A2.44,2.44,0,0,0,92,148.13c2.71.62,5.4,1.18,8.06,1.7v47.3H88.93a2.43,2.43,0,0,0,0,4.85H205.19A2.42,2.42,0,0,0,207.61,199.55ZM147.06,93.83l49.73,50.51a237.33,237.33,0,0,1-99.46,0Zm-11.85,103.3V178.57a10.45,10.45,0,0,1,10.44-10.44h2.84a10.45,10.45,0,0,1,10.44,10.44v18.56Zm28.57,0V178.57a15.31,15.31,0,0,0-15.29-15.29h-2.84a15.31,15.31,0,0,0-15.29,15.29v18.56H104.9v-46a266.77,266.77,0,0,0,84.32,0v46Z"/><path class="cls-2" d="M182,157.13a2.43,2.43,0,0,0-2.43,2.43v30.29a2.43,2.43,0,1,0,4.85,0V159.56A2.42,2.42,0,0,0,182,157.13Z"/><path class="cls-2" d="M113.88,141.35l34.91-35.45a2.43,2.43,0,1,0-3.46-3.4L110.43,138a2.42,2.42,0,1,0,3.45,3.4Z"/></svg>