<svg id="Camada_1" data-name="Camada 1" xmlns="http://www.w3.org/2000/svg" viewBox="0 0 300 300"><defs><style>.cls-1{fill:#05184a;}.cls-2{fill:#fff;}</style></defs><circle class="cls-1" cx="150" cy="150" r="101.24"/><path class="cls-2" d="M212.09,166.45V143a22.21,22.21,0,0,0-22.18-22.17H170.14a6.29,6.29,0,0,0-6.25-5.6H156V102.85h9.17a7.95,7.95,0,1,0,0-15.89h-35a7.95,7.95,0,1,0,0,15.89h9.17v12.37h-7.91a6.3,6.3,0,0,0-6.25,5.6h-13v-19.2a2.53,2.53,0,0,0-2.52-2.52H94.22a2.53,2.53,0,0,0-2.52,2.52v72.26a2.53,2.53,0,0,0,2.52,2.52h15.52a2.52,2.52,0,0,0,2.52-2.52V154.71h12.95a6.32,6.32,0,0,0,6.25,5.56h32.45a6.31,6.31,0,0,0,6.25-5.56h8.06v11.74a2.54,2.54,0,0,0,2.52,2.52h28.85A2.51,2.51,0,0,0,212.09,166.45ZM127.28,94.92A2.93,2.93,0,0,1,130.2,92h35a2.91,2.91,0,1,1,0,5.82h-35A2.89,2.89,0,0,1,127.28,94.92Zm17.11,7.93H151v12.37h-6.57Zm-37.17,68.51H96.74v-67.2h10.48v67.2Zm5-45.48h12.88v23.81H112.26ZM165.17,154a1.29,1.29,0,0,1-1.28,1.28H131.46a1.29,1.29,0,0,1-1.28-1.28v-1.77h0V123.36h0v-1.79a1.29,1.29,0,0,1,1.28-1.28h32.43a1.29,1.29,0,0,1,1.28,1.28V154Zm41.88,10H183.24V152.19a2.53,2.53,0,0,0-2.52-2.52H170.21V125.86h19.7A17.15,17.15,0,0,1,207.05,143Z"/><path class="cls-2" d="M195.18,176.1c-1.59,3.22-9.52,19.62-9.52,25a11.77,11.77,0,1,0,23.53,0c0-5.42-7.94-21.82-9.53-25A2.59,2.59,0,0,0,195.18,176.1Zm9,25.07a6.73,6.73,0,0,1-13.45,0c0-2.52,3.45-10.94,6.73-18.07C200.72,190.23,204.17,198.62,204.17,201.17Z"/></svg>