<?xml version="1.0" encoding="UTF-8"?>
<svg width="239.79" height="109.9" enable-background="new 0 0 841.89 595.28" version="1.1" viewBox="0 0 239.79 109.9" xml:space="preserve" xmlns="http://www.w3.org/2000/svg" xmlns:cc="http://creativecommons.org/ns#" xmlns:dc="http://purl.org/dc/elements/1.1/" xmlns:rdf="http://www.w3.org/1999/02/22-rdf-syntax-ns#"><title>Necto Systems</title><g transform="matrix(.49849 0 0 .49849 -89.852 -93.179)" fill="#ccc"><path d="m338.25 322.14-18.517-70.673h-12.121c-4.439 0-8.049 3.56-8.128 7.984v42.75c-0.017 2.206-1.811 3.985-4.021 3.985-1.382 0-2.606-0.702-3.333-1.771l-30.672-45.161c-3.204-4.696-8.601-7.787-14.715-7.787h-29.341l25.082 95.764 13.684-3.584v-22.2c0.079-2.149 1.85-3.869 4.016-3.869 1.371 0 2.578 0.688 3.306 1.737l12.927 19.027z"/><polygon points="338.25 311.08 338.25 258.31 324.43 258.31"/><polygon points="338.25 372.31 338.25 325.04 285.83 338.77 308.61 372.31"/><polygon points="217.4 372.31 249.33 372.31 249.33 348.34 240.49 350.65 217.4 262.53"/><polygon points="319.74 251.47 322.64 251.47 315.17 222.97 216.7 248.76 217.4 251.47 313.17 226.39"/><path d="m382.08 284.68h9.307l22.008 28.24v-28.24h9.956v45.863h-8.579l-22.73-29.157v29.157h-9.961v-45.863z"/><path d="m438.68 284.68h32.01v8.977h-21.98v9.303h21.98v8.977h-21.98v9.634h21.98v8.974h-32.01z"/><path d="m547.28 293.98h-13.953v-9.303h36.695v9.303h-12.65v36.561h-10.092z"/><path d="m576.44 307.74v-0.13c0-13.043 10.295-23.723 24.445-23.723 14.152 0 24.311 10.553 24.311 23.591v0.132c0 13.041-10.293 23.721-24.439 23.721-14.159 0-24.317-10.548-24.317-23.591zm38.209 0v-0.13c0-7.862-5.771-14.41-13.893-14.41-8.129 0-13.762 6.415-13.762 14.278v0.132c0 7.863 5.764 14.417 13.891 14.417 8.123 0 13.764-6.423 13.764-14.287z"/><path d="m520.72 316.95c-3.469 3.103-6.639 5.079-11.727 5.079-7.857 0-13.301-6.554-13.301-14.417v-0.132c0-7.863 5.572-14.278 13.301-14.278 4.586 0 8.195 1.96 11.727 5.172v-12.067c-3.098-1.518-6.842-2.417-11.66-2.417-14.082 0-23.914 10.68-23.914 23.723v0.13c0 13.173 10.023 23.591 23.525 23.591 4.975 0 8.811-0.995 12.049-2.767z"/><path d="m381.31 368.62 2.438-2.908c2.216 1.918 4.422 3.004 7.298 3.004 2.499 0 4.09-1.153 4.09-2.902v-0.067c0-1.646-0.926-2.541-5.212-3.528-4.924-1.187-7.693-2.64-7.693-6.897v-0.065c0-3.959 3.3-6.7 7.885-6.7 3.367 0 6.041 1.026 8.382 2.907l-2.177 3.065c-2.082-1.554-4.157-2.377-6.267-2.377-2.381 0-3.763 1.224-3.763 2.741v0.064c0 1.779 1.055 2.575 5.477 3.633 4.885 1.188 7.423 2.936 7.423 6.766v0.059c0 4.329-3.4 6.898-8.246 6.898-3.531-1e-3 -6.865-1.22-9.635-3.693z"/><path d="m414.44 362.87-9.171-13.99h4.783l6.463 10.229 6.538-10.229h4.648l-9.172 13.895v9.205h-4.089z"/><path d="m433.16 368.62 2.441-2.908c2.211 1.918 4.422 3.004 7.293 3.004 2.506 0 4.09-1.153 4.09-2.902v-0.067c0-1.646-0.926-2.541-5.211-3.528-4.92-1.187-7.688-2.64-7.688-6.897v-0.065c0-3.959 3.299-6.7 7.885-6.7 3.367 0 6.035 1.026 8.381 2.907l-2.178 3.065c-2.08-1.554-4.156-2.377-6.271-2.377-2.369 0-3.762 1.224-3.762 2.741v0.064c0 1.779 1.055 2.575 5.482 3.633 4.879 1.188 7.422 2.936 7.422 6.766v0.059c0 4.329-3.395 6.898-8.252 6.898-3.528-1e-3 -6.862-1.22-9.632-3.693z"/><path d="m466.4 352.65h-7.32v-3.765h18.736v3.765h-7.326v19.335h-4.09z"/><path d="m487.06 348.88h17.117v3.629h-13.062v6.007h11.58v3.633h-11.58v6.204h13.232v3.627h-17.287z"/><path d="m513.43 348.88h4.32l7.029 10.925 7.027-10.925h4.326v23.1h-4.061v-16.562l-7.293 10.886h-0.131l-7.225-10.824v16.501h-3.994v-23.101z"/><path d="m544.15 368.62 2.447-2.908c2.205 1.918 4.416 3.004 7.287 3.004 2.51 0 4.096-1.153 4.096-2.902v-0.067c0-1.646-0.926-2.541-5.213-3.528-4.924-1.187-7.693-2.64-7.693-6.897v-0.065c0-3.959 3.305-6.7 7.885-6.7 3.367 0 6.041 1.026 8.383 2.907l-2.172 3.065c-2.088-1.554-4.162-2.377-6.271-2.377-2.375 0-3.764 1.224-3.764 2.741v0.064c0 1.779 1.055 2.575 5.479 3.633 4.883 1.188 7.422 2.936 7.422 6.766v0.059c0 4.329-3.4 6.898-8.246 6.898-3.532-1e-3 -6.866-1.22-9.64-3.693z"/></g></svg>
