<svg id="Camada_1" data-name="Camada 1" xmlns="http://www.w3.org/2000/svg" viewBox="0 0 500 500"><defs><style>.cls-1{opacity:0.3;}.cls-2{fill:#05184a;}</style></defs><g class="cls-1"><path class="cls-2" d="M415.35,187.84H333.88v-96a37.65,37.65,0,0,0-37.61-37.6H84.65a37.65,37.65,0,0,0-37.6,37.6V233.45A37.66,37.66,0,0,0,81,270.88v35.28a6,6,0,0,0,3.71,5.54,5.93,5.93,0,0,0,2.29.46,6,6,0,0,0,4.25-1.76l39.34-39.35h35.56v96a37.64,37.64,0,0,0,37.6,37.59H374.23L413.57,444a6,6,0,0,0,4.25,1.76,5.93,5.93,0,0,0,2.29-.46,6,6,0,0,0,3.7-5.54V403.53A37.7,37.7,0,0,0,453,367.06V225.44A37.65,37.65,0,0,0,415.35,187.84ZM128.08,259.05a6,6,0,0,0-4.25,1.76L93,291.67V265.05a6,6,0,0,0-6-6H84.65a25.62,25.62,0,0,1-25.59-25.6V91.84a25.63,25.63,0,0,1,25.59-25.6H296.27a25.64,25.64,0,0,1,25.61,25.6v96H203.72a37.65,37.65,0,0,0-37.6,37.6v33.61ZM441,367.06a25.66,25.66,0,0,1-23.61,25.37,6,6,0,0,0-5.52,6v26.86L381,394.41a6,6,0,0,0-4.24-1.76h-173a25.63,25.63,0,0,1-25.6-25.59V225.44a25.64,25.64,0,0,1,25.6-25.6H415.35a25.64,25.64,0,0,1,25.6,25.6Z"/><path class="cls-2" d="M376.46,259.75H239.08a5.37,5.37,0,0,0,0,10.74H376.46a5.37,5.37,0,0,0,0-10.74Z"/><path class="cls-2" d="M376.46,321.79H239.08a5.37,5.37,0,0,0,0,10.74H376.46a5.37,5.37,0,0,0,0-10.74Z"/><path class="cls-2" d="M264.52,131.43a5.36,5.36,0,0,0-5.37-5.37H121.77a5.37,5.37,0,1,0,0,10.74H259.15A5.37,5.37,0,0,0,264.52,131.43Z"/></g></svg>