<svg id="Camada_1" data-name="Camada 1" xmlns="http://www.w3.org/2000/svg" viewBox="0 0 300 300"><defs><style>.cls-1{fill:none;stroke:#05184a;stroke-miterlimit:10;stroke-width:2px;}.cls-2{fill:#05184a;}</style></defs><circle class="cls-1" cx="150" cy="150" r="101.24"/><path class="cls-1" d="M164.78,102.21c0,15.52-6.46,28.1-14.43,28.1s-14.44-12.58-14.44-28.1,14.44-28.08,14.44-28.08S164.78,86.71,164.78,102.21Z"/><path class="cls-1" d="M182.9,152.61c-11,11-24.49,15.29-30.14,9.64s-1.32-19.1,9.66-30.14,30.14-9.66,30.14-9.66S193.88,141.63,182.9,152.61Z"/><path class="cls-1" d="M182.9,194.85c-11,11-24.49,15.29-30.14,9.66s-1.32-19.1,9.66-30.13,30.14-9.66,30.14-9.66S193.88,183.89,182.9,194.85Z"/><path class="cls-1" d="M118,152.61c11,11,24.49,15.29,30.14,9.64s1.32-19.1-9.66-30.14-30.14-9.66-30.14-9.66S107.15,141.63,118,152.61Z"/><path class="cls-1" d="M118,194.85c11,11,24.49,15.29,30.14,9.66s1.32-19.1-9.66-30.13-30.14-9.66-30.14-9.66S107.15,183.89,118,194.85Z"/><rect class="cls-2" x="148.07" y="129.21" width="4.56" height="97.78"/></svg>