<svg id="Camada_1" data-name="Camada 1" xmlns="http://www.w3.org/2000/svg" viewBox="0 0 300 300"><defs><style>.cls-1{fill:none;stroke:#05184a;stroke-miterlimit:10;stroke-width:2px;}.cls-2{fill:#05184a;}</style></defs><circle class="cls-1" cx="150" cy="150" r="101.24"/><path class="cls-2" d="M209.28,205.17h-7V163.85a1.54,1.54,0,0,0-1.54-1.54h-7.9v-76a1.54,1.54,0,0,0-1.54-1.55H156.21a1.54,1.54,0,0,0-1.54,1.55V120.7l-14-7.31V93.9a1.54,1.54,0,0,0-1.54-1.54H105.93a1.54,1.54,0,0,0-1.54,1.54V149H97a1.54,1.54,0,0,0-1.55,1.54v54.65H88.9a1.55,1.55,0,1,0,0,3.09H209.27a1.55,1.55,0,0,0,0-3.09Zm-81,0H98.57v-8.58h29.68Zm0-11.67H98.57v-8.44h29.68Zm0-11.52H98.57v-8.44h29.68Zm0-11.53H98.57v-7.89h29.68Zm0-11H98.57v-7.4h29.68Zm.75-51.3a1.53,1.53,0,0,0-.75,1.32V149H107.47V95.44h30.08v16.35l-7-3.67A1.53,1.53,0,0,0,129,108.17Zm34.36,97h-32V112l32,16.66Zm2.25-78.77-7.85-4.09V87.88h32v74.43H166.44V127.77A1.53,1.53,0,0,0,165.61,126.4Zm24.26,78.77H175.31V189.72a7.28,7.28,0,1,1,14.56,0Zm9.35,0H193V189.72a10.37,10.37,0,1,0-20.74,0v15.45h-5.78V165.39h32.78Z"/></svg>