<svg id="Camada_1" data-name="Camada 1" xmlns="http://www.w3.org/2000/svg" viewBox="0 0 300 300"><defs><style>.cls-1{fill:#05184a;}.cls-2{fill:#fff;}</style></defs><circle class="cls-1" cx="150" cy="150" r="101.24"/><path class="cls-2" d="M202.39,129.42H176.84V99.32a11.79,11.79,0,0,0-11.78-11.78H98.71A11.79,11.79,0,0,0,86.93,99.32v44.4a11.8,11.8,0,0,0,10.63,11.73v11.06a1.89,1.89,0,0,0,1.16,1.74,1.81,1.81,0,0,0,.72.14,1.88,1.88,0,0,0,1.33-.55l12.34-12.33h11.14V185.6A11.8,11.8,0,0,0,136,197.39H189.5l12.33,12.34a1.88,1.88,0,0,0,1.33.55,1.82,1.82,0,0,0,.72-.15A1.87,1.87,0,0,0,205,208.4V197a11.82,11.82,0,0,0,9.13-11.44V141.21A11.8,11.8,0,0,0,202.39,129.42Zm-90.06,22.33a1.84,1.84,0,0,0-1.33.55L101.32,162v-8.34a1.88,1.88,0,0,0-1.88-1.88h-.73a8,8,0,0,1-8-8V99.32a8,8,0,0,1,8-8h66.35a8,8,0,0,1,8,8v30.1H136a11.8,11.8,0,0,0-11.79,11.79v10.54Zm98.08,33.85a8,8,0,0,1-7.4,8,1.87,1.87,0,0,0-1.73,1.87v8.42l-9.67-9.67a1.93,1.93,0,0,0-1.34-.55H136a8,8,0,0,1-8-8V141.21a8,8,0,0,1,8-8h66.35a8,8,0,0,1,8,8Z"/><path class="cls-2" d="M190.19,152H147.13a1.69,1.69,0,1,0,0,3.37h43.06a1.69,1.69,0,1,0,0-3.37Z"/><path class="cls-2" d="M190.19,171.41H147.13a1.69,1.69,0,1,0,0,3.37h43.06a1.69,1.69,0,1,0,0-3.37Z"/><path class="cls-2" d="M155.1,111.73a1.68,1.68,0,0,0-1.68-1.68H110.35a1.69,1.69,0,0,0,0,3.37h43.07A1.69,1.69,0,0,0,155.1,111.73Z"/></svg>