<svg id="Camada_1" data-name="Camada 1" xmlns="http://www.w3.org/2000/svg" viewBox="0 0 300 300"><defs><style>.cls-1{fill:#05184a;}.cls-2{fill:#fff;}</style></defs><circle class="cls-1" cx="150" cy="150" r="101.24"/><path class="cls-2" d="M102.12,121l8.09-5.38v22.73a1.55,1.55,0,0,0,3.1,0V113.53L147.69,90.6l34.38,22.91V138.3a1.55,1.55,0,1,0,3.09,0V115.59l8.09,5.38a1.59,1.59,0,0,0,.85.26,1.55,1.55,0,0,0,.86-2.84l-47.27-31.5L100.42,118.4a1.56,1.56,0,0,0-.43,2.15A1.53,1.53,0,0,0,102.12,121Z"/><path class="cls-2" d="M85.8,147.54c5.65,0,8.45,2.1,11.42,4.33s6.59,4.95,13.27,4.95,10.18-2.63,13.28-4.95,5.75-4.33,11.42-4.33,8.44,2.1,11.41,4.33,6.6,4.95,13.28,4.95,10.2-2.63,13.27-4.95,5.76-4.33,11.42-4.33,8.47,2.1,11.42,4.33,6.59,4.95,13.28,4.95a1.55,1.55,0,0,0,0-3.09c-5.67,0-8.45-2.11-11.42-4.34s-6.59-4.95-13.28-4.95-10.19,2.63-13.27,4.95-5.76,4.34-11.42,4.34-8.45-2.11-11.42-4.34-6.59-4.95-13.27-4.95-10.2,2.63-13.28,4.95-5.76,4.34-11.42,4.34-8.45-2.11-11.42-4.34-6.59-4.95-13.27-4.95a1.55,1.55,0,0,0,0,3.1Z"/><path class="cls-2" d="M209.25,178.37c-5.66,0-8.45-2.1-11.42-4.33s-6.59-4.95-13.27-4.95-10.2,2.63-13.28,4.95-5.75,4.33-11.42,4.33-8.44-2.1-11.41-4.33-6.6-4.95-13.28-4.95S125,171.72,121.89,174s-5.75,4.33-11.41,4.33S102,176.27,99.06,174s-6.59-4.95-13.28-4.95a1.55,1.55,0,0,0,0,3.09c5.65,0,8.45,2.11,11.42,4.34s6.59,4.95,13.28,4.95,10.18-2.63,13.27-4.95,5.76-4.34,11.42-4.34,8.45,2.11,11.42,4.34,6.59,4.95,13.27,4.95,10.2-2.63,13.28-4.95,5.75-4.34,11.42-4.34,8.46,2.11,11.42,4.34,6.59,4.95,13.27,4.95a1.55,1.55,0,1,0,0-3.1Z"/><path class="cls-2" d="M209.25,203c-5.66,0-8.45-2.1-11.42-4.33s-6.59-4.95-13.27-4.95-10.2,2.63-13.28,4.95S165.53,203,159.86,203s-8.44-2.1-11.41-4.33-6.6-4.95-13.28-4.95-10.2,2.63-13.28,4.95S116.14,203,110.48,203s-8.45-2.1-11.42-4.33-6.59-4.95-13.28-4.95a1.55,1.55,0,0,0,0,3.09c5.65,0,8.45,2.11,11.42,4.33s6.59,5,13.28,5,10.18-2.63,13.27-5,5.76-4.33,11.42-4.33,8.45,2.11,11.42,4.33,6.59,5,13.27,5,10.2-2.63,13.28-5,5.75-4.33,11.42-4.33,8.46,2.11,11.42,4.33,6.59,5,13.27,5a1.55,1.55,0,1,0,0-3.1Z"/></svg>