<svg id="Camada_1" data-name="Camada 1" xmlns="http://www.w3.org/2000/svg" viewBox="0 0 300 300"><defs><style>.cls-1{fill:#05184a;}.cls-2{fill:#fff;}</style></defs><circle class="cls-1" cx="150" cy="150" r="101.24"/><path class="cls-2" d="M215.27,159.88V128.33l.92-.56a7.78,7.78,0,0,0-.73-13.7l-57.6-27.21a23.26,23.26,0,0,0-19.93,0L80.32,114.07a7.78,7.78,0,0,0-.73,13.67L100,140.19v37.37c0,11.82,20.61,20.73,47.94,20.73s47.94-8.91,47.94-20.73V140.19l14.26-8.69v28.38a7.78,7.78,0,1,0,5.18,0ZM81.06,121a2.6,2.6,0,0,1,1.48-2.2l57.58-27.22a18,18,0,0,1,15.55,0l57.6,27.21a2.59,2.59,0,0,1,1.25,3.45,2.56,2.56,0,0,1-1,1.11l-56.18,34.26a18,18,0,0,1-18.89,0L82.29,123.35A2.59,2.59,0,0,1,81.06,121Zm109.59,56.56c0,7.36-17.56,15.55-42.76,15.55s-42.76-8.19-42.76-15.55v-34.2L135.74,162a23.22,23.22,0,0,0,24.31,0l30.6-18.65Zm22-7.77a2.59,2.59,0,1,1,2.59-2.59A2.59,2.59,0,0,1,212.68,169.79Z"/></svg>