<svg id="Camada_1" data-name="Camada 1" xmlns="http://www.w3.org/2000/svg" viewBox="0 0 300 300"><defs><style>.cls-1{fill:none;stroke:#05184a;stroke-miterlimit:10;stroke-width:2px;}.cls-2{fill:#05184a;}</style></defs><circle class="cls-1" cx="150" cy="150" r="101.24"/><path class="cls-2" d="M84.42,196v-1.62l0-8.22c0-.25,0-.25,0-.38a2.71,2.71,0,0,1,0-.29c.15-8.65,6.37-16.16,16.53-22.58A82.8,82.8,0,0,1,112,157.1c1.32-.58,2.54-1.08,3.65-1.5.66-.25,1.14-.43,1.31-.48l.66-.26c.52-.2,1.13-.41,1.83-.65,2-.66,4.25-1.33,6.78-2,17.43-4.26,36.5-4.24,55.13,2.93a86.52,86.52,0,0,1,16.13,8c7.2,4.69,11.83,9.76,14.37,14.92a21,21,0,0,1,1.85,5.36,12.09,12.09,0,0,1,.24,2.69V196Zm126.05-3.46v-6.64a14.18,14.18,0,0,0-1.75-6.41c-2.27-4.57-6.49-9.16-13.18-13.49a83.81,83.81,0,0,0-15.47-7.64c-17.88-6.83-36.24-6.85-53-2.78-2.44.6-4.61,1.23-6.5,1.86q-1,.33-1.71.6l-.66.26c-.23.07-.67.23-1.3.47-1,.4-2.23.87-3.49,1.42a79.6,79.6,0,0,0-10.59,5.54c-9.29,5.84-14.84,12.48-15,19.69V186l0,6.54ZM149.16,151.1a33.69,33.69,0,1,1,33.68-33.69A33.68,33.68,0,0,1,149.16,151.1Zm0-3.46a30.23,30.23,0,1,0-30.23-30.23A30.22,30.22,0,0,0,149.16,147.64Z"/></svg>