<svg id="Camada_1" data-name="Camada 1" xmlns="http://www.w3.org/2000/svg" viewBox="0 0 300 300"><defs><style>.cls-1{fill:none;stroke:#05184a;stroke-miterlimit:10;stroke-width:2px;}.cls-2{fill:#05184a;}</style></defs><circle class="cls-1" cx="150" cy="150" r="101.24"/><path class="cls-2" d="M202,110a23.28,23.28,0,0,0-22.81-19H159.06V89A2.08,2.08,0,0,0,157,86.89H144.41A2.09,2.09,0,0,0,142.32,89v2.09H123.49V89a2.09,2.09,0,0,0-2.09-2.09H104.65A2.09,2.09,0,0,0,102.56,89v27.2a2.1,2.1,0,0,0,2.09,2.1H121.4a2.1,2.1,0,0,0,2.09-2.1v-2.09h18.83v27.2h-2.09a2.09,2.09,0,0,0-2.09,2.1v71.14a2.09,2.09,0,0,0,2.09,2.1h20.93a2.1,2.1,0,0,0,2.09-2.1V143.39a2.1,2.1,0,0,0-2.09-2.1h-2.1v-27.2h19.42a9.34,9.34,0,0,1,5.36,1.69l18,12.56a2.14,2.14,0,0,0,1.2.38,2.08,2.08,0,0,0,1.13-.34,2.1,2.1,0,0,0,.92-2.09Zm-82.66,4.06H106.75v-23H119.3Zm39.76,98.35H142.32v-67h16.74Zm-4.18-71.15h-8.37v-27.2h8.37Zm31.39-28.94a13.55,13.55,0,0,0-7.79-2.45h-55V95.26h55.66A19.1,19.1,0,0,1,198,110.8l2.1,11.2Z"/></svg>