<svg id="Camada_1" data-name="Camada 1" xmlns="http://www.w3.org/2000/svg" viewBox="0 0 300 300"><defs><style>.cls-1{fill:none;stroke:#05184a;stroke-miterlimit:10;stroke-width:2px;}.cls-2{fill:#05184a;}</style></defs><circle class="cls-1" cx="150" cy="150" r="101.24"/><path class="cls-2" d="M224.87,158.28h-8.41v-21a18.14,18.14,0,0,0,6.85,1.35v-3.11c-11.27,0-20.45-12.58-20.45-28v-1.55H187.75v1.55c0,14-17.25,25.35-38.45,25.35s-38.45-11.37-38.45-25.35v-1.55H95.74v1.55c0,15.47-9.17,28-20.45,28v3.11a18.3,18.3,0,0,0,6.85-1.35v21h-8.4V174.2h22v15.6h15.11V174.2h76.9v15.6h15.11V174.2h22Zm-11.52-22.65v22.65H202.86V122.85A27.8,27.8,0,0,0,213.35,135.63Zm-25.6-17.41v40.06H150.86V135.87a57.33,57.33,0,0,0,16.77-2.9v25.24h3.11V132.3h-1.25C177.67,129.17,184.16,124.21,187.75,118.22Zm-40,40.06H131V133a57.12,57.12,0,0,0,16.78,2.9ZM127.86,131.8v26.48h-17V118.22C114.26,123.9,120.27,128.66,127.86,131.8Zm-42.61,3.83a27.8,27.8,0,0,0,10.49-12.78v35.43H85.25Zm-8.4,35.46V161.4H95.74v9.69Zm30.89,15.6H98.85V109h8.89Zm3.11-15.6V161.4h76.9v9.69Zm88.9,15.6h-8.89V109h8.89Zm22-15.6h-18.9V161.4h18.9Z"/></svg>