<svg id="Camada_1" data-name="Camada 1" xmlns="http://www.w3.org/2000/svg" viewBox="0 0 300 300"><defs><style>.cls-1{fill:#05184a;}.cls-2{fill:#fff;}</style></defs><circle class="cls-1" cx="150" cy="150" r="101.24"/><path class="cls-2" d="M100.19,126.68c6.7,7,12.83,11.33,19.28,13.54a22.87,22.87,0,0,0,7.63,1.32c4.09,0,7.81-1.08,11.66-2.2,1.21-.35,2.45-.72,3.74-1.05,5.62-1.47,11.88-1.35,17.93-1.22l3.6.05c1.67,0,8.63-.28,8.82-.28a9.33,9.33,0,0,0,4.58-1.21L192,150.22a11,11,0,0,0,7.76,3.23,10,10,0,0,0,6.42-2.27,10.36,10.36,0,0,0,.73-15.27L174,103a8.62,8.62,0,0,0-1.88-1.39,2.36,2.36,0,0,0-1.88-1.33,30.34,30.34,0,0,0-3.13-.11H130.91a25.15,25.15,0,0,0-3.63.18L111.06,87.9a5,5,0,0,0-6.78.7l-17,19.83a5,5,0,0,0,.41,6.9Zm8-35,17,13.06a2.36,2.36,0,0,0,2,.43,17,17,0,0,1,3.71-.27h36.22v.32a4,4,0,0,1,3.51,1.12l32.94,32.94a5.62,5.62,0,0,1,1.62,4.23,5.53,5.53,0,0,1-2,4,5.89,5.89,0,0,1-7.82-.67l-14.52-14.52a9.31,9.31,0,0,0,1.4-4.9,9.41,9.41,0,0,0-9.39-9.4H142.46a2.38,2.38,0,0,0-4.13,1.62,5.61,5.61,0,0,0,.16,1.29,2.36,2.36,0,0,0,2.3,1.83h32.06a4.65,4.65,0,0,1,3.29,8,4.73,4.73,0,0,1-3.39,1.37c-2,.08-7.41.28-8.68.28l-3.54,0c-6.08-.13-13-.26-19.23,1.37-1.33.35-2.61.72-3.86,1.08-5.83,1.7-10.43,3-16.43,1-5.72-2-11.27-5.91-17.46-12.39a.68.68,0,0,0-.12-.12L90.85,111.82a.22.22,0,0,1,0-.31l17-19.82A.24.24,0,0,1,108.19,91.66Z"/><path class="cls-2" d="M179.72,161.1c-7.41-2.57-13.18-.89-19.29.88-1.2.35-2.44.71-3.73,1.05-5.63,1.46-11.89,1.34-17.94,1.22l-3.59-.06c-1.66,0-8.63.28-8.83.29a9.25,9.25,0,0,0-4.57,1.2L107.18,151.1a10.65,10.65,0,0,0-14.18-1,10.36,10.36,0,0,0-.73,15.27l32.94,32.94a9.12,9.12,0,0,0,1.87,1.38,2.35,2.35,0,0,0,1.88,1.34,30.43,30.43,0,0,0,3.13.11h36.2a25.74,25.74,0,0,0,3.63-.18l16.22,12.42a5,5,0,0,0,6.77-.7l17-19.82a5,5,0,0,0-.42-6.9L199,174.63C192.31,167.61,186.18,163.31,179.72,161.1Zm28.63,28.7-17,19.83a.23.23,0,0,1-.31,0L174,196.6a2.36,2.36,0,0,0-2-.43,16.87,16.87,0,0,1-3.7.27H132.07v-.33a4,4,0,0,1-3.52-1.12L95.62,162.06A5.63,5.63,0,0,1,94,157.83a5.54,5.54,0,0,1,2-4.05,5.88,5.88,0,0,1,7.82.66L118.35,169a9.38,9.38,0,0,0,8,14.3h30.39a2.38,2.38,0,0,0,4.14-1.62,5.6,5.6,0,0,0-.17-1.29,2.35,2.35,0,0,0-2.3-1.82H126.34a4.66,4.66,0,0,1-4.65-4.67,4.62,4.62,0,0,1,1.36-3.28,4.71,4.71,0,0,1,3.39-1.37c2-.08,7.39-.31,8.68-.29l3.54.06c6.08.12,13,.26,19.23-1.37,1.34-.35,2.61-.72,3.86-1.09,5.83-1.69,10.43-3,16.43-1,5.73,2,11.28,5.9,17.46,12.39l.12.12,12.59,11.41A.22.22,0,0,1,208.35,189.8Z"/></svg>