<svg id="Camada_1" data-name="Camada 1" xmlns="http://www.w3.org/2000/svg" viewBox="0 0 300 300"><defs><style>.cls-1{fill:none;stroke:#05184a;stroke-miterlimit:10;stroke-width:2px;}.cls-2{fill:#05184a;}</style></defs><circle class="cls-1" cx="150" cy="150" r="101.24"/><path class="cls-2" d="M149.93,227.79,88.46,166.08A44.68,44.68,0,0,1,90.93,106a44.4,44.4,0,0,1,59-3.37A44.39,44.39,0,0,1,211.5,166ZM122.32,96.41a40.69,40.69,0,0,0-29,12A41.22,41.22,0,0,0,91,163.77l59,59.18,59-59.28a41.18,41.18,0,0,0-2.47-55.26A41,41,0,0,0,151,106.13l-1.11.94-1.11-.94A41,41,0,0,0,122.32,96.41Zm33.62,100.42h-12a7.67,7.67,0,0,1-7.66-7.66V170.29H117.38a7.67,7.67,0,0,1-7.66-7.66v-12a7.67,7.67,0,0,1,7.66-7.66h18.88V124.08a7.67,7.67,0,0,1,7.66-7.66h12a7.67,7.67,0,0,1,7.66,7.66V143h18.87a7.68,7.68,0,0,1,7.67,7.66v12a7.67,7.67,0,0,1-7.67,7.66H163.6v18.88A7.67,7.67,0,0,1,155.94,196.83Zm-38.56-50.46a4.24,4.24,0,0,0-4.24,4.24v12a4.25,4.25,0,0,0,4.24,4.25h22.29v22.29a4.25,4.25,0,0,0,4.25,4.24h12a4.24,4.24,0,0,0,4.24-4.24V166.88h22.29a4.26,4.26,0,0,0,4.25-4.25v-12a4.25,4.25,0,0,0-4.25-4.24H160.18V124.08a4.25,4.25,0,0,0-4.24-4.25h-12a4.25,4.25,0,0,0-4.24,4.25v22.29Z"/></svg>