<svg id="Camada_1" data-name="Camada 1" xmlns="http://www.w3.org/2000/svg" viewBox="0 0 300 300"><defs><style>.cls-1{fill:none;stroke:#05184a;stroke-miterlimit:10;stroke-width:2px;}.cls-2{fill:#05184a;}</style></defs><circle class="cls-1" cx="150" cy="150" r="101.24"/><path class="cls-2" d="M123.13,202.42c6.91.2,14.71-4,17.27-5.51,2.51,1.47,10.07,5.52,16.85,5.52h.41a25,25,0,0,0,9.83-2.34v8.77a1.6,1.6,0,0,0,1.59,1.6h17.86a1.6,1.6,0,0,0,1.6-1.6V190.81h18a1.6,1.6,0,0,0,1.6-1.6V171.35a1.6,1.6,0,0,0-1.6-1.6H191.22c.21-.52.41-1.05.61-1.59,7.52-21.6,7.6-49.78-6.83-61.86-12.09-10.11-27.26-2.42-36.69,4.45,2.32-8.27,8.19-14.62,12.59-18.43a7.33,7.33,0,0,0,2.57-5.22,7.1,7.1,0,0,0-2-5.33c-2.08-2.1-5.75-3.28-8.51-1.32C143.53,87.12,138.57,94.8,136,102a30.7,30.7,0,0,0-3.46-3.75c-8-7.13-19.79-9.92-35.25-8.29a1.59,1.59,0,0,0-1.43,1.59,33.26,33.26,0,0,0,2.29,13.64c-.54.33-1.06.67-1.59,1-15,10.48-15.23,37.23-9.08,57.61C94.48,186.91,108.46,202.07,123.13,202.42Zm81.81-29.48v14.68h-18a1.59,1.59,0,0,0-1.59,1.59v18H170.68v-18a1.6,1.6,0,0,0-1.6-1.59H151V172.94h18.05a1.6,1.6,0,0,0,1.6-1.59V153.29h14.67v18.06a1.59,1.59,0,0,0,1.59,1.59ZM154.81,83.05a3.62,3.62,0,0,1,4.37,1,4,4,0,0,1,1.1,3,4,4,0,0,1-1.42,2.94c-5.43,4.69-12.91,13-14.36,23.92-.92.77-1.75,1.49-2.44,2.12a31.54,31.54,0,0,0-3.79-10.67C140.29,98,145,90,154.81,83.05Zm-24.39,17.54a27.75,27.75,0,0,1,8.66,17.29c-15.66,1.26-26.83-1.11-33.21-7.06-4.4-4.1-6.68-10.1-6.76-17.82,13.8-1.19,24.32,1.36,31.31,7.63Zm-31.9,8.2c.4-.27.8-.53,1.2-.76a23.08,23.08,0,0,0,4,5.13c5.9,5.47,15.18,8.23,27.72,8.23q4.48,0,9.57-.46a1.18,1.18,0,0,0,.3-.1.61.61,0,0,0,.19,0,1.09,1.09,0,0,0,.4-.27h.11c.24-.25,24.8-25.34,41.07-11.74,13.34,11.17,13.05,37.8,5.87,58.36-.11.31-.22.59-.32.9V151.7a1.6,1.6,0,0,0-1.59-1.6h-18a1.6,1.6,0,0,0-1.59,1.6v18.05H149.43a1.6,1.6,0,0,0-1.59,1.6v17.86a1.6,1.6,0,0,0,1.59,1.6h18.06v5.67a21.56,21.56,0,0,1-9.91,2.75c-7.22.14-16.24-5.47-16.33-5.52a1.6,1.6,0,0,0-1.71,0c-.09,0-9.09,5.68-16.33,5.52-16.13-.39-27.66-19.8-32.63-36.31-5.82-19.33-5.86-44.51,7.86-54.1Z"/></svg>