<svg id="Camada_1" data-name="Camada 1" xmlns="http://www.w3.org/2000/svg" viewBox="0 0 300 300"><defs><style>.cls-1{fill:#05184a;}.cls-2{fill:#fff;}</style></defs><circle class="cls-1" cx="150" cy="150" r="101.24"/><path class="cls-2" d="M231,129H216.8a1.66,1.66,0,1,0,0,3.31H231a1.66,1.66,0,0,0,0-3.31Z"/><path class="cls-2" d="M186.31,103.8a1.65,1.65,0,0,0,1.65-1.65V89a1.66,1.66,0,1,0-3.31,0v13.17A1.65,1.65,0,0,0,186.31,103.8Z"/><path class="cls-2" d="M208.25,150.78a1.66,1.66,0,1,0-2.25,2.43l10.05,9.31a1.66,1.66,0,0,0,2.34-.09,1.65,1.65,0,0,0-.09-2.33Z"/><path class="cls-2" d="M164.3,110.64a1.66,1.66,0,0,0,2.34-.09,1.65,1.65,0,0,0-.09-2.33l-10-9.32a1.66,1.66,0,0,0-2.25,2.43Z"/><path class="cls-2" d="M208.61,111.65a1.69,1.69,0,0,0,1.13-.44l10-9.32a1.65,1.65,0,1,0-2.25-2.42l-10,9.31a1.66,1.66,0,0,0,1.12,2.87Z"/><path class="cls-2" d="M210,130.69a23.71,23.71,0,0,0-45.26-9.87,31.9,31.9,0,0,0-23.11-9.9,33.14,33.14,0,0,0-33,30.71,25.09,25.09,0,0,0-10.31-2.24c-14.43,0-26.16,12.25-26.16,27.31S83.9,194,98.33,194a1.73,1.73,0,0,0,.6-.12h80.35c14.95,0,27.11-12.41,27.11-27.66a27.91,27.91,0,0,0-5.63-16.81A23.65,23.65,0,0,0,210,130.69Zm-23.71-20.4a20.36,20.36,0,0,1,12.32,36.6,26.72,26.72,0,0,0-25-7.73,33.58,33.58,0,0,0-6.49-15.54A20.4,20.4,0,0,1,186.3,110.29Zm-7,80.3H98.38a1.58,1.58,0,0,0-.49.1c-12.4-.25-22.41-10.9-22.41-24s10.25-24,22.85-24a22.38,22.38,0,0,1,17.23,8.24,1.65,1.65,0,0,0,2.55-2.11,26.38,26.38,0,0,0-6.24-5.49,29.82,29.82,0,0,1,29.77-29.11c15.13,0,27.59,11.67,29,27.14a.83.83,0,0,0,0,.15,1,1,0,0,0,0,.16c0,.06.06.1.08.15a1.25,1.25,0,0,0,.15.28,1.33,1.33,0,0,0,.21.26,1.24,1.24,0,0,0,.22.18,1.69,1.69,0,0,0,.29.17l.28.09a1.84,1.84,0,0,0,.33,0,1,1,0,0,0,.18,0,.83.83,0,0,0,.15,0,.88.88,0,0,0,.16,0,23.63,23.63,0,0,1,6.53-.93c13.13,0,23.81,10.93,23.81,24.36S192.4,190.59,179.27,190.59Z"/></svg>