<svg id="Camada_1" data-name="Camada 1" xmlns="http://www.w3.org/2000/svg" viewBox="0 0 300 300"><defs><style>.cls-1{fill:#05184a;}.cls-2{fill:#fff;}</style></defs><circle class="cls-1" cx="150" cy="150" r="101.24"/><path class="cls-2" d="M180.56,160.81c.1-23.64-28.81-56.16-30-57.54a1.77,1.77,0,0,0-2.64,0c-1.24,1.39-30.42,34.18-30.52,57.26a31.64,31.64,0,0,0,31.46,31.74H149A31.64,31.64,0,0,0,180.56,160.81ZM149,188.72h-.12a28.07,28.07,0,0,1-27.93-28.17c.08-19.06,22.55-46.65,28.29-53.39,5.7,6.71,27.9,34.11,27.81,53.63A28.08,28.08,0,0,1,149,188.72Z"/><path class="cls-2" d="M166.64,81.66A1.75,1.75,0,0,0,164.5,83a1.77,1.77,0,0,0,1.29,2.15A67.09,67.09,0,0,1,167.28,215l1.4-2.38a1.77,1.77,0,0,0-3.06-1.79l-3.46,5.9a1.79,1.79,0,0,0,.63,2.43l5.91,3.46a1.8,1.8,0,0,0,.89.24,1.77,1.77,0,0,0,.9-3.3l-2.05-1.2a70.64,70.64,0,0,0-1.8-136.68Z"/><path class="cls-2" d="M132.81,218.84a1.51,1.51,0,0,0,.42,0,1.77,1.77,0,0,0,.42-3.49A67.1,67.1,0,0,1,132,85.53l-1.08,2.25a1.77,1.77,0,0,0,3.19,1.54l3-6.17a1.77,1.77,0,0,0-.83-2.37l-6.16-3A1.77,1.77,0,1,0,128.52,81l2.38,1.14a70.64,70.64,0,0,0,1.91,136.69Z"/></svg>