<svg id="Camada_1" data-name="Camada 1" xmlns="http://www.w3.org/2000/svg" viewBox="0 0 300 300"><defs><style>.cls-1{fill:#05184a;}.cls-2{fill:#fff;}</style></defs><circle class="cls-1" cx="150" cy="150" r="101.24"/><path class="cls-2" d="M124.57,155.89c5,5.64,7.81,10.28,8.06,17.87h-2.49a6.49,6.49,0,0,0-1.86,12.72v8.8a5.92,5.92,0,0,0,5.91,5.91h.28v5.09a7.61,7.61,0,0,0,7.59,7.59h16.06a7.61,7.61,0,0,0,7.59-7.59v-5.09H166a5.92,5.92,0,0,0,5.91-5.91v-8.8A6.49,6.49,0,0,0,170,173.76H167.6c.19-7.58,2.9-12.08,8.09-18a38.06,38.06,0,0,0-2.37-52.42,33.74,33.74,0,0,0-25.46-9.22c-17.64,1.16-32,16.62-32.67,35.21A37.58,37.58,0,0,0,124.57,155.89Zm37.82,50.39a4.27,4.27,0,0,1-4.27,4.27H142.06a4.27,4.27,0,0,1-4.27-4.27v-5.09h24.6Zm3.6-8.4h-31.8a2.6,2.6,0,0,1-2.59-2.6v-8.5h37v8.5A2.6,2.6,0,0,1,166,197.88Zm7.24-17.61a3.2,3.2,0,0,1-3.19,3.2h-39.9a3.2,3.2,0,0,1,0-6.39H170A3.19,3.19,0,0,1,173.23,180.27Zm-26.55-6.51-2.54-31.86H156l-2.54,31.86Zm1.4-76.3a30.41,30.41,0,0,1,23,8.34,34.76,34.76,0,0,1,2.16,47.8c-5.62,6.37-8.73,11.57-8.92,20.16h-7.46l2.54-31.86h4.68a1.66,1.66,0,1,0,0-3.31h-4.41l.39-5a1.66,1.66,0,1,0-3.3-.27l-.42,5.25H143.87l-.42-5.25a1.66,1.66,0,1,0-3.3.27l.4,5h-4.42a1.66,1.66,0,1,0,0,3.31h4.68l2.54,31.86H136c-.26-8.61-3.47-14-8.9-20.07a34.33,34.33,0,0,1-8.55-24.21C119.12,112.57,132.11,98.51,148.08,97.46Z"/><path class="cls-2" d="M148.43,82.89v4.43a1.66,1.66,0,0,0,3.32,0V82.89a1.66,1.66,0,0,0-3.32,0Z"/><path class="cls-2" d="M134,92.18a1.72,1.72,0,0,0,.63-.12,1.66,1.66,0,0,0,.9-2.17l-1.69-4.09a1.66,1.66,0,0,0-3.07,1.27l1.7,4.09A1.65,1.65,0,0,0,134,92.18Z"/><path class="cls-2" d="M120.34,101.3a1.64,1.64,0,0,0,1.17-.48,1.66,1.66,0,0,0,0-2.35l-3.13-3.13A1.66,1.66,0,0,0,116,97.69l3.13,3.13A1.66,1.66,0,0,0,120.34,101.3Z"/><path class="cls-2" d="M111.86,111.76l-4.1-1.69a1.65,1.65,0,0,0-1.26,3.06l4.09,1.7a1.76,1.76,0,0,0,.63.12,1.65,1.65,0,0,0,1.53-1A1.66,1.66,0,0,0,111.86,111.76Z"/><path class="cls-2" d="M101.93,129.39a1.66,1.66,0,0,0,1.66,1.66H108a1.66,1.66,0,1,0,0-3.31h-4.43A1.66,1.66,0,0,0,101.93,129.39Z"/><path class="cls-2" d="M110.59,144l-4.09,1.7a1.66,1.66,0,0,0,.63,3.19,1.55,1.55,0,0,0,.63-.13l4.1-1.69a1.66,1.66,0,0,0-1.27-3.07Z"/><path class="cls-2" d="M119.17,158,116,161.1a1.66,1.66,0,0,0,2.34,2.35l3.13-3.13a1.66,1.66,0,1,0-2.34-2.35Z"/><path class="cls-2" d="M183,163.93a1.64,1.64,0,0,0,1.17-.48,1.66,1.66,0,0,0,0-2.35L181,158a1.66,1.66,0,1,0-2.34,2.35l3.13,3.13A1.66,1.66,0,0,0,183,163.93Z"/><path class="cls-2" d="M188.32,147l4.1,1.69a1.55,1.55,0,0,0,.63.13,1.66,1.66,0,0,0,.63-3.19l-4.09-1.7a1.66,1.66,0,0,0-1.27,3.07Z"/><path class="cls-2" d="M192.16,127.74a1.66,1.66,0,1,0,0,3.31h4.43a1.66,1.66,0,1,0,0-3.31Z"/><path class="cls-2" d="M187.43,113.93a1.65,1.65,0,0,0,1.53,1,1.72,1.72,0,0,0,.63-.12l4.1-1.7a1.66,1.66,0,0,0-1.27-3.06l-4.1,1.69A1.66,1.66,0,0,0,187.43,113.93Z"/><path class="cls-2" d="M181,100.82l3.13-3.13a1.66,1.66,0,0,0-2.34-2.35l-3.13,3.13a1.66,1.66,0,0,0,0,2.35,1.64,1.64,0,0,0,1.17.48A1.66,1.66,0,0,0,181,100.82Z"/><path class="cls-2" d="M166.19,92.18a1.65,1.65,0,0,0,1.53-1l1.7-4.09a1.66,1.66,0,0,0-3.07-1.27l-1.69,4.09a1.66,1.66,0,0,0,.9,2.17A1.72,1.72,0,0,0,166.19,92.18Z"/></svg>