<svg id="Camada_1" data-name="Camada 1" xmlns="http://www.w3.org/2000/svg" viewBox="0 0 300 300"><defs><style>.cls-1{fill:none;stroke:#05184a;stroke-miterlimit:10;stroke-width:2px;}.cls-2{fill:#05184a;}</style></defs><circle class="cls-1" cx="150" cy="150" r="101.24"/><path class="cls-2" d="M114.1,123.35a12,12,0,1,0-12-12A12,12,0,0,0,114.1,123.35Zm0-21a9,9,0,1,1-9,9A9,9,0,0,1,114.1,102.34Z"/><path class="cls-2" d="M115.59,94.47V90a1.5,1.5,0,0,0-3,0v4.49a1.5,1.5,0,0,0,3,0Z"/><path class="cls-2" d="M107.23,97.42a1.46,1.46,0,0,0,.61-.13,1.5,1.5,0,0,0,.76-2l-1.82-4.1A1.5,1.5,0,1,0,104,92.44l1.83,4.1A1.5,1.5,0,0,0,107.23,97.42Z"/><path class="cls-2" d="M99.22,95.94a1.49,1.49,0,0,0-2,2.22l3.33,3a1.5,1.5,0,0,0,1,.39,1.5,1.5,0,0,0,1-2.61Z"/><path class="cls-2" d="M92.36,104.29a1.49,1.49,0,0,0,1,1.88l4.26,1.39a1.51,1.51,0,0,0,.46.07,1.5,1.5,0,0,0,.47-2.92l-4.27-1.38A1.48,1.48,0,0,0,92.36,104.29Z"/><path class="cls-2" d="M91.36,113.74a1.5,1.5,0,0,0,1.49,1.34H93l4.46-.47a1.49,1.49,0,1,0-.32-3l-4.46.47A1.49,1.49,0,0,0,91.36,113.74Z"/><path class="cls-2" d="M100.77,119a1.49,1.49,0,0,0-2-.54l-3.88,2.24a1.49,1.49,0,0,0,.75,2.79,1.52,1.52,0,0,0,.74-.2l3.89-2.24A1.5,1.5,0,0,0,100.77,119Z"/><path class="cls-2" d="M101.54,130.13a1.48,1.48,0,0,0,1.21-.62l2.64-3.62a1.51,1.51,0,0,0-.33-2.09,1.49,1.49,0,0,0-2.09.33l-2.64,3.63a1.49,1.49,0,0,0,.33,2.08A1.45,1.45,0,0,0,101.54,130.13Z"/><path class="cls-2" d="M109.13,127.55l-.94,4.39a1.49,1.49,0,0,0,1.16,1.77,1.55,1.55,0,0,0,.31,0,1.49,1.49,0,0,0,1.46-1.18l.93-4.39a1.49,1.49,0,0,0-2.92-.62Z"/><path class="cls-2" d="M117.3,126.4a1.49,1.49,0,0,0-1.15,1.77l.93,4.39a1.49,1.49,0,0,0,1.46,1.18,1.63,1.63,0,0,0,.31,0,1.48,1.48,0,0,0,1.15-1.77l-.93-4.39A1.48,1.48,0,0,0,117.3,126.4Z"/><path class="cls-2" d="M125.23,124.13a1.5,1.5,0,0,0-2.42,1.76l2.64,3.63a1.49,1.49,0,0,0,1.21.61,1.49,1.49,0,0,0,1.21-2.37Z"/><path class="cls-2" d="M132.6,123.53a1.49,1.49,0,0,0,.75-2.79l-3.88-2.24a1.5,1.5,0,1,0-1.5,2.59l3.89,2.24A1.52,1.52,0,0,0,132.6,123.53Z"/><path class="cls-2" d="M135.35,115.08a1.49,1.49,0,0,0,.15-3l-4.45-.47a1.49,1.49,0,1,0-.32,3l4.46.47Z"/><path class="cls-2" d="M134,103.33l-4.27,1.38a1.5,1.5,0,0,0,.46,2.92,1.91,1.91,0,0,0,.47-.07l4.26-1.39a1.49,1.49,0,0,0-.92-2.84Z"/><path class="cls-2" d="M129,95.94l-3.33,3a1.49,1.49,0,0,0-.12,2.11,1.49,1.49,0,0,0,2.12.11l3.33-3a1.49,1.49,0,0,0-2-2.22Z"/><path class="cls-2" d="M121,97.42a1.5,1.5,0,0,0,1.37-.88l1.82-4.1a1.5,1.5,0,1,0-2.73-1.22l-1.82,4.1a1.48,1.48,0,0,0,.76,2A1.41,1.41,0,0,0,121,97.42Z"/><path class="cls-2" d="M89.27,140.57A1.5,1.5,0,0,0,90.83,142c.35,0,35.51-1.3,60.57,15.95s53,17.72,55.81,17.72h.18a1.48,1.48,0,0,0,1.48-1.51,1.51,1.51,0,0,0-1.51-1.48c-.27,0-29.16.09-54.26-17.19a74.49,74.49,0,0,0-6.39-3.92c6.82-4.84,31.52-20.78,60.67-20.78a1.5,1.5,0,0,0,0-3c-32,0-58.81,18.65-63.63,22.22C119.5,138,92,139,90.71,139A1.51,1.51,0,0,0,89.27,140.57Z"/><path class="cls-2" d="M207.56,180a7.89,7.89,0,0,0-5.9,2.75c-1.16,1.11-2,1.92-3.82,1.92s-2.67-.81-3.83-1.92a7.7,7.7,0,0,0-11.8,0c-1.16,1.11-2,1.92-3.83,1.92s-2.66-.81-3.82-1.92a7.68,7.68,0,0,0-11.78,0c-1.16,1.12-2,1.92-3.83,1.92s-2.66-.81-3.82-1.92a7.69,7.69,0,0,0-11.79,0c-1.16,1.12-2,1.92-3.82,1.92s-2.66-.81-3.82-1.92a7.69,7.69,0,0,0-11.79,0c-1.15,1.12-2,1.92-3.82,1.92s-2.66-.8-3.82-1.92a7.68,7.68,0,0,0-11.78,0c-1.16,1.12-2,1.92-3.82,1.92s-2.66-.81-3.82-1.92A7.87,7.87,0,0,0,91,180a1.5,1.5,0,1,0,0,3c1.82,0,2.66.81,3.82,1.92a7.68,7.68,0,0,0,11.78,0c1.16-1.11,2-1.92,3.83-1.92s2.66.81,3.81,1.92a7.68,7.68,0,0,0,11.78,0c1.16-1.11,2-1.92,3.82-1.92s2.67.81,3.83,1.92a7.68,7.68,0,0,0,11.78,0c1.16-1.11,2-1.92,3.83-1.92s2.66.81,3.82,1.92a7.69,7.69,0,0,0,11.79,0c1.16-1.11,2-1.92,3.82-1.92s2.67.81,3.82,1.92a7.69,7.69,0,0,0,11.79,0c1.16-1.11,2-1.92,3.83-1.92s2.67.81,3.83,1.92a7.69,7.69,0,0,0,11.79,0c1.16-1.11,2-1.92,3.83-1.92a1.5,1.5,0,1,0,0-3Z"/><path class="cls-2" d="M207.56,190.43a7.89,7.89,0,0,0-5.9,2.74c-1.16,1.12-2,1.92-3.82,1.92s-2.67-.8-3.83-1.92a7.72,7.72,0,0,0-11.8,0c-1.16,1.12-2,1.92-3.83,1.92s-2.66-.8-3.82-1.91a7.68,7.68,0,0,0-11.78,0c-1.16,1.11-2,1.91-3.83,1.91s-2.66-.8-3.82-1.91a7.69,7.69,0,0,0-11.79,0c-1.16,1.11-2,1.91-3.82,1.91s-2.66-.8-3.82-1.91a7.69,7.69,0,0,0-11.79,0c-1.15,1.11-2,1.91-3.82,1.91s-2.66-.8-3.82-1.91a7.68,7.68,0,0,0-11.78,0c-1.16,1.11-2,1.91-3.82,1.91s-2.66-.8-3.82-1.91A7.84,7.84,0,0,0,91,190.43a1.5,1.5,0,1,0,0,3c1.82,0,2.66.8,3.82,1.91a7.68,7.68,0,0,0,11.78,0c1.16-1.11,2-1.91,3.83-1.91s2.66.8,3.81,1.91a7.68,7.68,0,0,0,11.78,0c1.16-1.11,2-1.91,3.82-1.91s2.67.8,3.83,1.91a7.68,7.68,0,0,0,11.78,0c1.16-1.11,2-1.91,3.83-1.91s2.66.8,3.82,1.91a7.69,7.69,0,0,0,11.79,0c1.16-1.11,2-1.91,3.82-1.91s2.67.8,3.82,1.91a7.69,7.69,0,0,0,11.79,0c1.16-1.11,2-1.91,3.83-1.91s2.67.8,3.83,1.91a7.69,7.69,0,0,0,11.79,0c1.16-1.11,2-1.91,3.83-1.91a1.5,1.5,0,1,0,0-3Z"/><path class="cls-2" d="M207.56,200.87a7.86,7.86,0,0,0-5.9,2.75c-1.16,1.11-2,1.91-3.83,1.91s-2.67-.8-3.83-1.91a7.69,7.69,0,0,0-11.79,0c-1.16,1.11-2,1.91-3.83,1.91s-2.66-.8-3.82-1.91a7.69,7.69,0,0,0-11.79,0c-1.15,1.11-2,1.91-3.82,1.91s-2.66-.8-3.82-1.91a7.69,7.69,0,0,0-11.79,0c-1.16,1.11-2,1.91-3.82,1.91s-2.67-.8-3.82-1.91a7.69,7.69,0,0,0-11.79,0c-1.16,1.11-2,1.91-3.82,1.91s-2.66-.8-3.82-1.91a7.68,7.68,0,0,0-11.78,0c-1.16,1.11-2,1.91-3.82,1.91s-2.67-.8-3.82-1.91a7.86,7.86,0,0,0-5.9-2.75,1.5,1.5,0,0,0,0,3c1.83,0,2.67.8,3.83,1.91a7.68,7.68,0,0,0,11.78,0c1.16-1.11,2-1.91,3.82-1.91s2.67.8,3.82,1.91a7.69,7.69,0,0,0,11.78,0c1.16-1.12,2-1.92,3.82-1.92s2.67.8,3.83,1.92a7.7,7.7,0,0,0,11.78,0c1.16-1.12,2-1.92,3.82-1.92s2.67.8,3.83,1.92a7.71,7.71,0,0,0,11.79,0c1.16-1.12,2-1.92,3.82-1.92s2.66.8,3.82,1.92a7.71,7.71,0,0,0,11.79,0c1.16-1.12,2-1.92,3.83-1.92s2.67.8,3.83,1.92a7.71,7.71,0,0,0,11.79,0c1.16-1.12,2-1.92,3.83-1.92a1.5,1.5,0,1,0,0-3Z"/></svg>